<svg id="Line" height="512" viewBox="0 0 64 64" width="512" xmlns="http://www.w3.org/2000/svg"><path d="m26 29c0 3.732 2.961 6.588 4.025 7.494a10.986 10.986 0 0 0 21.938.232c3.983-1.626 4.037-7.464 4.037-7.726v-7c0-2.335-2.021-9-11-9-7.179 0-10.154 1.267-11.217 1.926a5.7 5.7 0 0 0 -4.891.93c-3.092 2.463-2.978 8.389-2.909 11.93.009.45.017.86.017 1.214zm15 16a9.01 9.01 0 0 1 -9-9v-11.26a36.245 36.245 0 0 0 7.058-3.055 19.2 19.2 0 0 0 3.542 3.136 18.343 18.343 0 0 0 7.4 3.041v8.138a9.01 9.01 0 0 1 -9 9z" fill="#c4a2fc"/><path d="m49 50h-16a12.013 12.013 0 0 0 -12 12 1 1 0 0 0 1 1h38a1 1 0 0 0 1-1 12.013 12.013 0 0 0 -12-12z" fill="#c4a2fc"/><g fill="#151a6a"><path d="m38 1h-32a3 3 0 0 0 -3 3v44a3 3 0 0 0 3 3h32a3 3 0 0 0 3-3v-44a3 3 0 0 0 -3-3zm1 47a1 1 0 0 1 -1 1h-32a1 1 0 0 1 -1-1v-44a1 1 0 0 1 1-1h32a1 1 0 0 1 1 1z"/><path d="m31 8h-18a3 3 0 0 0 -3 3v8a3 3 0 0 0 3 3h18a3 3 0 0 0 3-3v-8a3 3 0 0 0 -3-3zm1 11a1 1 0 0 1 -1 1h-18a1 1 0 0 1 -1-1v-8a1 1 0 0 1 1-1h18a1 1 0 0 1 1 1z"/><path d="m33 29h-22a1 1 0 0 0 0 2h22a1 1 0 0 0 0-2z"/><path d="m33 35h-22a1 1 0 0 0 0 2h22a1 1 0 0 0 0-2z"/><path d="m33 41h-22a1 1 0 0 0 0 2h22a1 1 0 0 0 0-2z"/></g></svg>