<svg id="Line" height="512" viewBox="0 0 64 64" width="512" xmlns="http://www.w3.org/2000/svg"><path d="m38.183 47.417a1 1 0 0 0 -.8-.417 8.995 8.995 0 0 1 -4.933-16.441 1 1 0 0 0 .415-1.053l-3.23-14.04a1 1 0 0 0 -1.343-.706 25 25 0 0 0 9.208 48.24 24.647 24.647 0 0 0 9.1-1.721 1 1 0 0 0 .445-1.512z" fill="#c4a2fc"/><path d="m62.479 36.969a1 1 0 0 0 -1-.969h-14.029a1 1 0 0 0 -1 1.09c.027.3.046.6.046.91a9.006 9.006 0 0 1 -5.264 8.18 1 1 0 0 0 -.4 1.493l8.22 11.47a1 1 0 0 0 1.329.273 24.814 24.814 0 0 0 12.119-21.416c0-.351-.01-.69-.021-1.031z" fill="#c4a2fc"/><path d="m34.646 28.4a1 1 0 0 0 1.167.757 8.758 8.758 0 0 1 1.687-.157 9.033 9.033 0 0 1 7.794 4.5 1 1 0 0 0 .866.5h14.81a1 1 0 0 0 .979-1.207 25 25 0 0 0 -29.68-19.241 1 1 0 0 0 -.764 1.2z" fill="#c4a2fc"/><g fill="#151a6a"><path d="m25.2 28.712 2.346-2.346 7.3 6.384a1 1 0 0 0 1.576-.355l1.913-4.414c.057 0 .112.017.17.017a2.993 2.993 0 0 0 2.062-5.169l7.896-18.229 1.108 2.772a1 1 0 1 0 1.857-.743l-2-5a1.025 1.025 0 0 0 -1.3-.557l-5 2a1 1 0 0 0 .743 1.858l2.746-1.1-7.884 18.191c-.078-.006-.153-.021-.233-.021a2.989 2.989 0 0 0 -2.014 5.208l-1.359 3.137-6.969-6.1a1 1 0 0 0 -1.365.046l-3.008 3.009a2.964 2.964 0 0 0 -1.285-.3 3 3 0 0 0 -3 3 2.968 2.968 0 0 0 .3 1.285l-3.689 3.69a9.023 9.023 0 1 0 1.414 1.414l3.689-3.69a2.973 2.973 0 0 0 1.286.301 3 3 0 0 0 3-3 2.969 2.969 0 0 0 -.3-1.288zm-14.7 20.288a7 7 0 1 1 7-7 7.008 7.008 0 0 1 -7 7z"/><path d="m4.5 21h8.638l5.722 4.769a1 1 0 0 0 1.64-.769v-4h4a3 3 0 0 0 3-3v-10a3 3 0 0 0 -3-3h-20a3 3 0 0 0 -3 3v10a3 3 0 0 0 3 3zm-1-13a1 1 0 0 1 1-1h20a1 1 0 0 1 1 1v10a1 1 0 0 1 -1 1h-5a1 1 0 0 0 -1 1v2.865l-4.36-3.633a1 1 0 0 0 -.64-.232h-9a1 1 0 0 1 -1-1z"/><path d="m48.5 35h-.639l-5.721-4.77a1 1 0 0 0 -1.64.77v4h-12a3 3 0 0 0 -3 3v10a3 3 0 0 0 3 3h20a3 3 0 0 0 3-3v-10a3 3 0 0 0 -3-3zm1 13a1 1 0 0 1 -1 1h-20a1 1 0 0 1 -1-1v-10a1 1 0 0 1 1-1h13a1 1 0 0 0 1-1v-2.867l4.359 3.633a1 1 0 0 0 .641.234h1a1 1 0 0 1 1 1z"/><path d="m42.5 40h-8a1 1 0 0 0 0 2h8a1 1 0 0 0 0-2z"/><path d="m42.5 44h-8a1 1 0 0 0 0 2h8a1 1 0 0 0 0-2z"/><path d="m10.5 12h8a1 1 0 0 0 0-2h-8a1 1 0 0 0 0 2z"/><path d="m10.5 16h8a1 1 0 0 0 0-2h-8a1 1 0 0 0 0 2z"/><path d="m10 47a5.006 5.006 0 0 1 -5-5 1 1 0 0 1 2 0 3 3 0 0 0 3 3 1 1 0 0 1 0 2z"/></g></svg>