<?xml version="1.0"?>
<svg xmlns="http://www.w3.org/2000/svg" id="Line" width="512" height="512" viewBox="0 0 64 64"><path d="M62.555,36.274l-24-16.1a.99.99,0,0,0-1.11,0l-24,16.1a1.01,1.01,0,0,0-.277,1.395,1,1,0,0,0,1.387.279l4.464-2.995V59.98a3.013,3.013,0,0,0,3,3.02h3V48.909a3.014,3.014,0,0,1,3-3.02h20a3.014,3.014,0,0,1,3,3.02V63h3a3.013,3.013,0,0,0,3-3.02v-25l4.426,2.97a1,1,0,0,0,1.387-.279A1.01,1.01,0,0,0,62.555,36.274ZM38.019,40.857a6.039,6.039,0,1,1,6-6.039A6.026,6.026,0,0,1,38.019,40.857Z" style="fill:#c4a2fc"/><path d="M48.019,47.9h-20a1,1,0,0,0-1,1.007V63h22V48.909A1,1,0,0,0,48.019,47.9Zm-4,11.072h-12a1.007,1.007,0,0,1,0-2.013h12a1.007,1.007,0,0,1,0,2.013Zm0-5.033h-12a1.007,1.007,0,0,1,0-2.013h12a1.007,1.007,0,0,1,0,2.013Z" style="fill:#c4a2fc"/><path d="M27,24.556V19.747a3.491,3.491,0,0,1,1.27.588,1,1,0,0,0,1.309-1.512A5.53,5.53,0,0,0,27,17.7V17a1,1,0,0,0-2,0v.722a4.2,4.2,0,0,0-3.634,3.431,3.525,3.525,0,0,0,1.258,3.518A10.759,10.759,0,0,0,25,25.937v6a4.6,4.6,0,0,1-2.617-.858,1,1,0,1,0-1.054,1.7A6.588,6.588,0,0,0,25,33.934V35a1,1,0,0,0,2,0V33.807a5.071,5.071,0,0,0,3.942-4.082C31.391,26.913,29.694,25.509,27,24.556Zm-3.183-1.491a1.568,1.568,0,0,1-.484-1.552A2.146,2.146,0,0,1,25,19.772v3.977A7.156,7.156,0,0,1,23.817,23.065Zm5.15,6.344A3.015,3.015,0,0,1,27,31.737V26.672C28.6,27.212,29.157,28.219,28.967,29.409Z" style="fill:#151a6a"/><path d="M47,22a4,4,0,0,0-3.858,3H40.949a14.912,14.912,0,0,0-3.674-8.861l1.554-1.553a3.992,3.992,0,0,0,4.849-6.264,4.1,4.1,0,0,0-5.657,0,4,4,0,0,0-.607,4.85l-1.553,1.553A14.912,14.912,0,0,0,27,11.051V8.858a4,4,0,1,0-2,0v2.193a14.912,14.912,0,0,0-8.861,3.674l-1.553-1.553a4,4,0,0,0-.607-4.85,4.1,4.1,0,0,0-5.657,0,3.992,3.992,0,0,0,4.849,6.264l1.554,1.553A14.912,14.912,0,0,0,11.051,25H8.858a4,4,0,1,0,0,2h2.193a14.912,14.912,0,0,0,3.674,8.861l-1.554,1.553a4,4,0,1,0,1.415,1.414l1.553-1.553A14.912,14.912,0,0,0,25,40.949v2.193a4,4,0,1,0,2,0V40.949a14.912,14.912,0,0,0,8.861-3.674l1.553,1.553a4,4,0,1,0,1.415-1.414l-1.554-1.553A14.912,14.912,0,0,0,40.949,27h2.193A3.993,3.993,0,1,0,47,22ZM39.435,9.736a2,2,0,1,1,0,2.829A2,2,0,0,1,39.435,9.736ZM24,5a2,2,0,1,1,2,2A2,2,0,0,1,24,5ZM9.736,12.565a2,2,0,1,1,2.829,0A2,2,0,0,1,9.736,12.565ZM5,28a2,2,0,1,1,2-2A2,2,0,0,1,5,28Zm7.565,14.264a2.048,2.048,0,0,1-2.829,0,2,2,0,1,1,2.829,0ZM28,47a2,2,0,1,1-2-2A2,2,0,0,1,28,47Zm14.264-7.565a2,2,0,0,1,0,2.829,2.048,2.048,0,0,1-2.829,0,2,2,0,0,1,2.829-2.829ZM26,39A13,13,0,1,1,39,26,13.015,13.015,0,0,1,26,39ZM47,28a2,2,0,1,1,2-2A2,2,0,0,1,47,28Z" style="fill:#151a6a"/></svg>
