<svg id="Line" height="512" viewBox="0 0 64 64" width="512" xmlns="http://www.w3.org/2000/svg"><g fill="#c4a2fc"><path d="m51.083 40h-26.166a6.017 6.017 0 0 1 -4.917 4.917v6.166a6.017 6.017 0 0 1 4.917 4.917h26.166a6.017 6.017 0 0 1 4.917-4.917v-6.166a6.017 6.017 0 0 1 -4.917-4.917zm-13.083 14a6 6 0 1 1 6-6 6.006 6.006 0 0 1 -6 6z"/><path d="m55 20a3 3 0 0 0 -3-3h-28a3 3 0 0 0 -3 3v2h34z"/><path d="m60 27a3 3 0 0 0 -3-3h-38a3 3 0 0 0 -3 3v4h44z"/><path d="m60 33h-44a3 3 0 0 0 -3 3v24a3 3 0 0 0 3 3h44a3 3 0 0 0 3-3v-24a3 3 0 0 0 -3-3zm-2 19a1 1 0 0 1 -1 1 4 4 0 0 0 -4 4 1 1 0 0 1 -1 1h-28a1 1 0 0 1 -1-1 4 4 0 0 0 -4-4 1 1 0 0 1 -1-1v-8a1 1 0 0 1 1-1 4 4 0 0 0 4-4 1 1 0 0 1 1-1h28a1 1 0 0 1 1 1 4 4 0 0 0 4 4 1 1 0 0 1 1 1z"/><circle cx="38" cy="48" r="4"/></g><path d="m41.121 8.707c-.1-.1-7.523-7.518-7.422-7.42a1.084 1.084 0 0 0 -.699-.287h-21.764a2.985 2.985 0 0 0 -2.683 1.658l-7.448 14.9a2.838 2.838 0 0 0 -.105.442v30a3 3 0 0 0 3 3h35a3 3 0 0 0 3-3v-37.172a2.982 2.982 0 0 0 -.879-2.121zm-9.121 9.293v31h-6v-30.764l7.274-14.548 4.092 4.092-5.247 9.746a1.007 1.007 0 0 0 -.119.474zm-21.658-14.447a.993.993 0 0 1 .894-.553h20.146l-7 14h-20.764zm-7.342 44.447v-29h21v30h-20a1 1 0 0 1 -1-1zm37 0a1 1 0 0 1 -1 1h-5v-30.748l4.843-8.995.864.864a1 1 0 0 1 .293.707z" fill="#151a6a"/><path d="m17 25h-7a1 1 0 0 0 0 2h7a1 1 0 0 0 0-2z" fill="#151a6a"/><path d="m17 33h-7a1 1 0 0 0 0 2h7a1 1 0 0 0 0-2z" fill="#151a6a"/><path d="m10.618 15h10.274a2.986 2.986 0 0 0 2.544-1.41l3.456-5.53a2 2 0 0 0 -1.692-3.06h-10.964a2.985 2.985 0 0 0 -2.683 1.658l-2.724 5.448a2 2 0 0 0 1.789 2.894zm2.724-7.447a.993.993 0 0 1 .894-.553h10.964l-3.46 5.529a1 1 0 0 1 -.848.471h-10.274z" fill="#151a6a"/></svg>