<?xml version="1.0"?>
<svg xmlns="http://www.w3.org/2000/svg" id="Line" width="512" height="512" viewBox="0 0 64 64"><path d="M61.852,45.476,46.789,21H54a3,3,0,0,0,3-3V17a3,3,0,0,0-3-3H36a3,3,0,0,0-3,3v1a3,3,0,0,0,3,3h7.211L28.148,45.476A1.938,1.938,0,0,0,28,46a17,17,0,0,0,34,0A1.891,1.891,0,0,0,61.852,45.476ZM30.789,45,45,21.908,59.211,45Zm26.468,5.334A13.029,13.029,0,0,1,45,59a1,1,0,0,1,0-2,11.027,11.027,0,0,0,10.372-7.334,1,1,0,0,1,1.885.668Z" style="fill:#c4a2fc"/><path d="M51.978,27.788,46.99,4.843a.994.994,0,0,0-1.345-1.028c-6.547,2.5-7.438-2.187-13.861-.421a5.977,5.977,0,0,0-9.569,0c-6.419-1.762-7.351,2.9-13.86.42A.994.994,0,0,0,7.01,4.843L2.022,27.788A1.336,1.336,0,0,0,2,28a6,6,0,0,0,12,0,1.336,1.336,0,0,0-.022-.212l-4.4-20.22a16.893,16.893,0,0,0,12.6,2.987,6.008,6.008,0,0,0,1.788,1.612L20.111,39.15A2.993,2.993,0,0,0,18,42v4a3,3,0,0,0,3,3H33a3,3,0,0,0,3-3V42a2.992,2.992,0,0,0-2.111-2.85L30.034,12.167a6.008,6.008,0,0,0,1.788-1.612,16.9,16.9,0,0,0,12.6-2.987l-4.4,20.22A1.336,1.336,0,0,0,40,28a6,6,0,0,0,12,0A1.336,1.336,0,0,0,51.978,27.788ZM49.759,27H42.241L46,9.709ZM27,3a4,4,0,1,1-4,4A4,4,0,0,1,27,3ZM8,9.709,11.759,27H4.241ZM8,32a4.006,4.006,0,0,1-3.873-3h7.746A4.006,4.006,0,0,1,8,32ZM11.6,6.536c4.411.19,5.409-2.284,9.676-1.32a5.949,5.949,0,0,0-.035,3.434A14.978,14.978,0,0,1,11.6,6.536ZM34,46a1,1,0,0,1-1,1H21a1,1,0,0,1-1-1V42a1,1,0,0,1,1-1H33a1,1,0,0,1,1,1Zm-2.153-7H22.153l3.73-26.108a5.83,5.83,0,0,0,2.234,0Zm.917-30.351a5.949,5.949,0,0,0-.035-3.434c4.206-.957,5.309,1.509,9.676,1.321A14.97,14.97,0,0,1,32.764,8.649ZM46,32a4.006,4.006,0,0,1-3.873-3h7.746A4.006,4.006,0,0,1,46,32Z" style="fill:#151a6a"/></svg>
