<svg id="Line" height="512" viewBox="0 0 64 64" width="512" xmlns="http://www.w3.org/2000/svg"><path d="m60 13h-31a3 3 0 0 0 -3 3v10a3 3 0 0 0 3 3h31a3 3 0 0 0 3-3v-10a3 3 0 0 0 -3-3zm-1 9a3 3 0 0 1 -3 3h-23a3 3 0 0 1 -3-3v-2a3 3 0 0 1 3-3h23a3 3 0 0 1 3 3z" fill="#c4a2fc"/><rect fill="#c4a2fc" height="6" rx="1" width="9" x="32" y="51"/><rect fill="#c4a2fc" height="21" rx="1" width="9" x="48" y="37"/><rect fill="#c4a2fc" height="6" rx="1" width="9" x="32" y="37"/><path d="m60 31h-31a3 3 0 0 0 -3 3v26a3 3 0 0 0 3 3h31a3 3 0 0 0 3-3v-26a3 3 0 0 0 -3-3zm-17 25a3 3 0 0 1 -3 3h-7a3 3 0 0 1 -3-3v-4a3 3 0 0 1 3-3h7a3 3 0 0 1 3 3zm0-14a3 3 0 0 1 -3 3h-7a3 3 0 0 1 -3-3v-4a3 3 0 0 1 3-3h7a3 3 0 0 1 3 3zm16 15a3 3 0 0 1 -3 3h-7a3 3 0 0 1 -3-3v-19a3 3 0 0 1 3-3h7a3 3 0 0 1 3 3z" fill="#c4a2fc"/><g fill="#151a6a"><path d="m36 37h-32a3 3 0 0 0 -3 3v8a3 3 0 0 0 3 3h32a3 3 0 0 0 3-3v-8a3 3 0 0 0 -3-3zm1 11a1 1 0 0 1 -1 1h-32a1 1 0 0 1 -1-1v-8a1 1 0 0 1 1-1h32a1 1 0 0 1 1 1z"/><path d="m4 35h12a3 3 0 0 0 3-3v-28a3 3 0 0 0 -3-3h-12a3 3 0 0 0 -3 3v28a3 3 0 0 0 3 3zm12-2h-12a1 1 0 0 1 -1-1v-13h14v13a1 1 0 0 1 -1 1zm-12-30h12a1 1 0 0 1 1 1v13h-14v-13a1 1 0 0 1 1-1z"/><path d="m36 1h-12a3 3 0 0 0 -3 3v28a3 3 0 0 0 3 3h12a3 3 0 0 0 3-3v-28a3 3 0 0 0 -3-3zm-12 2h12a1 1 0 0 1 1 1v13h-14v-13a1 1 0 0 1 1-1zm12 30h-12a1 1 0 0 1 -1-1v-13h14v13a1 1 0 0 1 -1 1z"/><path d="m27 41h-14a1 1 0 0 0 0 2h14a1 1 0 0 0 0-2z"/><path d="m27 44.937h-14a1 1 0 0 0 0 2h14a1 1 0 0 0 0-2z"/><path d="m6 11h8a1 1 0 0 0 0-2h-8a1 1 0 0 0 0 2z"/><path d="m14 25h-8a1 1 0 0 0 0 2h8a1 1 0 0 0 0-2z"/><path d="m26 11h3v3a1 1 0 0 0 2 0v-3h3a1 1 0 0 0 0-2h-3v-3a1 1 0 0 0 -2 0v3h-3a1 1 0 0 0 0 2z"/><path d="m33.536 22.464a1 1 0 0 0 -1.414 0l-2.122 2.122-2.122-2.122a1 1 0 0 0 -1.414 1.414l2.122 2.122-2.122 2.122a1 1 0 0 0 1.414 1.414l2.122-2.122 2.122 2.122a1 1 0 0 0 1.414-1.414l-2.122-2.122 2.122-2.122a1 1 0 0 0 0-1.414z"/><path d="m10.02 23a1 1 0 0 0 0-2h-.01a1 1 0 0 0 .01 2z"/><path d="m10.02 29h-.01a1.005 1.005 0 1 0 .01 0z"/></g></svg>