<svg id="Line" height="512" viewBox="0 0 64 64" width="512" xmlns="http://www.w3.org/2000/svg"><g fill="#c4a2fc"><path d="m50 40h-5v-23a3 3 0 0 0 -3-3h-8a3 3 0 0 0 -3 3v23h-5a1 1 0 0 0 -.857 1.514l12 20a1 1 0 0 0 1.714 0l12-20a1 1 0 0 0 -.857-1.514z"/><path d="m62 33h-5v-16a3 3 0 0 0 -3-3h-4a3 3 0 0 0 -3 3v20a1 1 0 0 0 1 1h7.3l-7.726 12.873a1 1 0 0 0 1.646 1.127l13.567-17.384a1 1 0 0 0 -.787-1.616z"/><path d="m26 14h-4a3 3 0 0 0 -3 3v16h-5a1 1 0 0 0 -.789 1.615l13.567 17.385a1 1 0 0 0 1.646-1.13l-7.724-12.87h7.3a1 1 0 0 0 1-1v-20a3 3 0 0 0 -3-3z"/></g><path d="m48 14h-5.184a2.966 2.966 0 0 0 .184-1v-8a3 3 0 0 0 -3-3h-36a3 3 0 0 0 -3 3v8a3 3 0 0 0 3 3h5.184a2.966 2.966 0 0 0 -.184 1v8a2.966 2.966 0 0 0 .184 1h-5.184a3 3 0 0 0 -3 3v8a3 3 0 0 0 3 3h36a3 3 0 0 0 3-3v-8a2.966 2.966 0 0 0 -.184-1h5.184a3 3 0 0 0 3-3v-8a3 3 0 0 0 -3-3zm-45-1v-8a1 1 0 0 1 1-1h5v5a1 1 0 0 0 2 0v-5h6v5a1 1 0 0 0 2 0v-5h6v5a1 1 0 0 0 2 0v-5h6v5a1 1 0 0 0 2 0v-5h5a1 1 0 0 1 1 1v8a1 1 0 0 1 -1 1h-36a1 1 0 0 1 -1-1zm38 16v8a1 1 0 0 1 -1 1h-36a1 1 0 0 1 -1-1v-8a1 1 0 0 1 1-1h5v5a1 1 0 0 0 2 0v-5h6v5a1 1 0 0 0 2 0v-5h6v5a1 1 0 0 0 2 0v-5h6v5a1 1 0 0 0 2 0v-5h5a1 1 0 0 1 1 1zm8-4a1 1 0 0 1 -1 1h-36a1 1 0 0 1 -1-1v-8a1 1 0 0 1 1-1h5v5a1 1 0 0 0 2 0v-5h6v5a1 1 0 0 0 2 0v-5h6v5a1 1 0 0 0 2 0v-5h6v5a1 1 0 0 0 2 0v-5h5a1 1 0 0 1 1 1z" fill="#151a6a"/></svg>