<?xml version="1.0"?>
<svg xmlns="http://www.w3.org/2000/svg" id="Line" width="512" height="512" viewBox="0 0 64 64"><path d="M38.746,13.32a1.031,1.031,0,0,0-1.494,0l-8,9a1,1,0,0,0-.253.665V60a3,3,0,0,0,3,3H44a3,3,0,0,0,3-3V22.988a1,1,0,0,0-.253-.665Z" style="fill:#c4a2fc"/><path d="M62.706,37.285l-12-12A1,1,0,0,0,49,25.989V60a3,3,0,0,0,3,3h4a3,3,0,0,0,3-3V38.993h3A1,1,0,0,0,62.706,37.285Z" style="fill:#c4a2fc"/><path d="M25.292,25.281l-12,12A1,1,0,0,0,14,38.993h3V60a3,3,0,0,0,3,3h4a3,3,0,0,0,3-3V25.989A1,1,0,0,0,25.292,25.281Z" style="fill:#c4a2fc"/><path d="M43,36a3,3,0,0,0-3-3H29.983a17,17,0,1,0-15.966,0H4a3,3,0,0,0-3,3v4a2.981,2.981,0,0,0,.78,2A2.981,2.981,0,0,0,1,44v4a3,3,0,0,0,3,3H40a3,3,0,0,0,3-3V44a2.981,2.981,0,0,0-.78-2A2.981,2.981,0,0,0,43,40ZM7.051,19h2a12.919,12.919,0,0,0,3.088,7.447l-1.414,1.414A14.912,14.912,0,0,1,7.051,19ZM10.725,8.139l1.414,1.414A12.919,12.919,0,0,0,9.051,17h-2A14.912,14.912,0,0,1,10.725,8.139ZM36.949,17h-2a12.919,12.919,0,0,0-3.088-7.447l1.414-1.414A14.912,14.912,0,0,1,36.949,17ZM33.275,27.861l-1.414-1.414A12.919,12.919,0,0,0,34.949,19h2A14.912,14.912,0,0,1,33.275,27.861ZM11,18A11,11,0,1,1,22,29,11.013,11.013,0,0,1,11,18ZM23,30.949a12.926,12.926,0,0,0,7.447-3.088l1.414,1.414A14.912,14.912,0,0,1,23,32.949Zm7.447-22.81A12.926,12.926,0,0,0,23,5.051v-2a14.912,14.912,0,0,1,8.861,3.674ZM21,5.051a12.926,12.926,0,0,0-7.447,3.088L12.139,6.725A14.912,14.912,0,0,1,21,3.051Zm-7.447,22.81A12.926,12.926,0,0,0,21,30.949v2a14.912,14.912,0,0,1-8.861-3.674ZM3,36a1,1,0,0,1,1-1H9v3a1,1,0,0,0,2,0V35h6v3a1,1,0,0,0,2,0V35h6v3a1,1,0,0,0,2,0V35h6v3a1,1,0,0,0,2,0V35h5a1,1,0,0,1,1,1v4a1,1,0,0,1-1,1H4a1,1,0,0,1-1-1ZM41,48a1,1,0,0,1-1,1H4a1,1,0,0,1-1-1V44a1,1,0,0,1,1-1H9v3a1,1,0,0,0,2,0V43h6v3a1,1,0,0,0,2,0V43h6v3a1,1,0,0,0,2,0V43h6v3a1,1,0,0,0,2,0V43h5a1,1,0,0,1,1,1Z" style="fill:#151a6a"/><path d="M29,18a1,1,0,0,0,2,0,9.01,9.01,0,0,0-9-9,1,1,0,0,0,0,2A7.008,7.008,0,0,1,29,18Z" style="fill:#151a6a"/></svg>
