<svg id="Line" height="512" viewBox="0 0 64 64" width="512" xmlns="http://www.w3.org/2000/svg"><path d="m30.665 60.088a3 3 0 0 0 2.935 2.412h8.7a3 3 0 0 0 2.936-2.412l1.12-5.588h-16.807z" fill="#c4a2fc"/><path d="m62.605 32.7a11.7 11.7 0 0 0 -11.161-1.521 12.208 12.208 0 0 0 -6.071 4.8 4.2 4.2 0 0 0 -.662 2.546l-5.761 1.649v-7.733a8.982 8.982 0 1 0 -2 0v7.706l-5.665-1.622c.2-3.177-3.745-6.254-6.733-7.343a11.7 11.7 0 0 0 -11.152 1.518 1 1 0 0 0 -.37 1.017 11.74 11.74 0 0 0 7.57 8.357 12.182 12.182 0 0 0 7.727.235 4.17 4.17 0 0 0 2.362-1.876l6.265 1.794v2.273h-6.986a3 3 0 0 0 -3 3v2a3 3 0 0 0 3 3h15.969a3 3 0 0 0 2.994-3v-2a3 3 0 0 0 -2.994-3h-6.987v-2.246l6.361-1.821c1.737 2.927 6.927 2.794 10.089 1.641a11.74 11.74 0 0 0 7.575-8.354 1 1 0 0 0 -.37-1.02zm-24.653-14.2a5 5 0 0 1 4.991 5 1 1 0 1 1 -2 0 3 3 0 0 0 -2.994-3 1 1 0 0 1 0-2zm0 10a5 5 0 0 1 -4.99-5 1 1 0 1 1 2 0 3 3 0 0 0 2.994 3 1 1 0 0 1 0 2z" fill="#c4a2fc"/><g fill="#151a6a"><path d="m24 11.5a15 15 0 1 0 15 15 15.017 15.017 0 0 0 -15-15zm0 28a13 13 0 1 1 13-13 13.015 13.015 0 0 1 -13 13z"/><path d="m44 33.642v-14.284a3.991 3.991 0 1 0 -3.93-6.558l-12.15-6.508a4 4 0 1 0 -7.92-.792 4.034 4.034 0 0 0 .1.857l-11.978 6.673a3.987 3.987 0 1 0 -4.122 6.328v14.284a3.991 3.991 0 1 0 3.948 6.539l12.167 6.4a4 4 0 1 0 7.885.919 3.947 3.947 0 0 0 -.116-.915l12.168-6.4a3.989 3.989 0 1 0 3.948-6.543zm-1-20.142a2 2 0 1 1 -2 2 2 2 0 0 1 2-2zm-19-10a2 2 0 1 1 -2 2 2 2 0 0 1 2-2zm-21 12a2 2 0 1 1 2 2 2 2 0 0 1 -2-2zm2 24a2 2 0 1 1 2-2 2 2 0 0 1 -2 2zm19 10a2 2 0 1 1 2-2 2 2 0 0 1 -2 2zm2.947-4.682a3.954 3.954 0 0 0 -5.895 0l-12.167-6.4a3.941 3.941 0 0 0 -2.885-4.776v-14.284a3.89 3.89 0 0 0 2.936-4.493l12.078-6.73a3.947 3.947 0 0 0 6.015-.052l12.1 6.475a3.932 3.932 0 0 0 2.871 4.8v14.284a3.94 3.94 0 0 0 -2.885 4.772zm16.053-5.318a2 2 0 1 1 2-2 2 2 0 0 1 -2 2z"/><path d="m25 25.2v-5.415a3.507 3.507 0 0 1 1.216.615 1 1 0 0 0 1.349-1.476 5.572 5.572 0 0 0 -2.565-1.196v-1.228a1 1 0 0 0 -2 0v1.2a4.4 4.4 0 0 0 -3.859 3.626 3.838 3.838 0 0 0 1.253 3.785 11.288 11.288 0 0 0 2.606 1.446v6.643a4.631 4.631 0 0 1 -2.849-.933 1 1 0 0 0 -1.093 1.674 6.585 6.585 0 0 0 3.942 1.259v1.3a1 1 0 0 0 2 0v-1.465a5.292 5.292 0 0 0 3.929-4.27c.491-2.925-1.137-4.531-3.929-5.565zm-3.372-1.657a1.866 1.866 0 0 1 -.522-1.841 2.344 2.344 0 0 1 1.894-1.95v4.612a7.8 7.8 0 0 1 -1.372-.822zm5.328 6.892a3.343 3.343 0 0 1 -1.956 2.51v-5.618a2.656 2.656 0 0 1 1.956 3.107z"/></g></svg>