<?xml version="1.0"?>
<svg xmlns="http://www.w3.org/2000/svg" id="Line" width="512" height="512" viewBox="0 0 64 64"><path d="M62,45.53V29a4,4,0,0,0-4-4,3.906,3.906,0,0,0-2,.56V20a4,4,0,0,0-4-4,3.943,3.943,0,0,0-2.04.58A3.991,3.991,0,0,0,42,17v3.56A3.906,3.906,0,0,0,40,20a4,4,0,0,0-4,4V34.67a4.9,4.9,0,0,1,2.92,3.15,14.424,14.424,0,0,1,.75,5.1,7.993,7.993,0,0,1,4.24,5.35,1,1,0,0,1-1.94.49,6.015,6.015,0,0,0-3.73-4.3.985.985,0,0,1-.62-1.06,11.771,11.771,0,0,0-.61-4.99,2.987,2.987,0,0,0-4.78-1.4l-3.15,2.62A2.977,2.977,0,0,0,28,41.94v3.59a2.971,2.971,0,0,0,.32,1.34L31.385,53H31a3,3,0,0,0-3,3v4a3,3,0,0,0,3,3H59a3,3,0,0,0,3-3V56a3,3,0,0,0-3-3h-.385l3.065-6.13A2.971,2.971,0,0,0,62,45.53ZM60,56v4a1,1,0,0,1-1,1H31a1,1,0,0,1-1-1V56a1,1,0,0,1,1-1H59A1,1,0,0,1,60,56Z" style="fill:#c4a2fc"/><path d="M48,57H42a1,1,0,0,0,0,2h6a1,1,0,0,0,0-2Z" style="fill:#c4a2fc"/><path d="M39,1H37a3,3,0,0,0-3,3V6a1,1,0,0,1-1,1H31a1,1,0,0,1-1-1V4a3,3,0,0,0-3-3H25a3,3,0,0,0-3,3V6a1,1,0,0,1-1,1H19a1,1,0,0,1-1-1V4a3,3,0,0,0-3-3H13a3,3,0,0,0-3,3V31H5a3,3,0,0,0-3,3V44a5.006,5.006,0,0,0,5,5H37a5.006,5.006,0,0,0,5-5V4A3,3,0,0,0,39,1ZM4,44V34a1,1,0,0,1,1-1h5V44a3,3,0,0,1-6,0Zm36,0a3,3,0,0,1-3,3H10.974A4.948,4.948,0,0,0,12,44V4a1,1,0,0,1,1-1h2a1,1,0,0,1,1,1V6a3,3,0,0,0,3,3h2a3,3,0,0,0,3-3V4a1,1,0,0,1,1-1h2a1,1,0,0,1,1,1V6a3,3,0,0,0,3,3h2a3,3,0,0,0,3-3V4a1,1,0,0,1,1-1h2a1,1,0,0,1,1,1Z" style="fill:#151a6a"/><path d="M21.057,31.438A6.6,6.6,0,0,0,25,32.7V34a1,1,0,0,0,2,0V32.535a5.294,5.294,0,0,0,3.929-4.27c.5-2.955-1.169-4.537-3.929-5.565V17.287a3.518,3.518,0,0,1,1.216.613,1,1,0,0,0,1.35-1.476A5.564,5.564,0,0,0,27,15.227V14a1,1,0,0,0-2,0v1.205a4.4,4.4,0,0,0-3.86,3.626,3.84,3.84,0,0,0,1.254,3.785A11.31,11.31,0,0,0,25,24.057V30.7a4.62,4.62,0,0,1-2.848-.936,1,1,0,0,0-1.1,1.674Zm2.571-10.4a1.868,1.868,0,0,1-.523-1.841A2.346,2.346,0,0,1,25,17.251v4.611A7.688,7.688,0,0,1,23.628,21.042Zm5.328,6.892A3.343,3.343,0,0,1,27,30.445V24.827A2.656,2.656,0,0,1,28.956,27.934Z" style="fill:#151a6a"/><path d="M35,39H17a1,1,0,0,0,0,2H35a1,1,0,0,0,0-2Z" style="fill:#151a6a"/></svg>
