<svg id="Line" height="512" viewBox="0 0 64 64" width="512" xmlns="http://www.w3.org/2000/svg"><circle cx="37.5" cy="47" fill="#c4a2fc" r="2"/><path d="m59.485 37h-.985v-3a21 21 0 0 0 -42 0v3h-.985a3 3 0 0 0 -3 3.242 25.1 25.1 0 0 0 49.977 0 3 3 0 0 0 -3.007-3.242zm-36.985-3a15 15 0 0 1 30 0v3h-30zm16 16.858v5.142a1 1 0 0 1 -2 0v-5.142a4 4 0 1 1 2 0z" fill="#c4a2fc"/><g fill="#151a6a"><path d="m46.5 1h-36a3 3 0 0 0 -3 3v4h-3a3 3 0 0 0 -3 3v4a3 3 0 0 0 3 3h3v10h-3a3 3 0 0 0 -3 3v4a3 3 0 0 0 3 3h3v4a3 3 0 0 0 3 3h36a3 3 0 0 0 3-3v-38a3 3 0 0 0 -3-3zm-43 14v-4a1 1 0 0 1 1-1h10a1 1 0 0 1 1 1v4a1 1 0 0 1 -1 1h-10a1 1 0 0 1 -1-1zm0 20v-4a1 1 0 0 1 1-1h10a1 1 0 0 1 1 1v4a1 1 0 0 1 -1 1h-10a1 1 0 0 1 -1-1zm44 7a1 1 0 0 1 -1 1h-36a1 1 0 0 1 -1-1v-4h5a3 3 0 0 0 3-3v-4a3 3 0 0 0 -3-3h-5v-10h5a3 3 0 0 0 3-3v-4a3 3 0 0 0 -3-3h-5v-4a1 1 0 0 1 1-1h36a1 1 0 0 1 1 1z"/><path d="m34.5 13a10 10 0 1 0 10 10 10.011 10.011 0 0 0 -10-10zm0 18a8 8 0 1 1 8-8 8.009 8.009 0 0 1 -8 8z"/><path d="m38.5 23a4 4 0 0 1 -4 4 1 1 0 0 0 0 2 6.007 6.007 0 0 0 6-6 1 1 0 0 0 -2 0z"/></g></svg>