<svg id="Line" height="512" viewBox="0 0 64 64" width="512" xmlns="http://www.w3.org/2000/svg"><ellipse cx="46" cy="49" fill="#c4a2fc" rx="3.5" ry="4"/><ellipse cx="33" cy="33" fill="#c4a2fc" rx="3.5" ry="4"/><path d="m39.5 17a23 23 0 1 0 23 23 23.026 23.026 0 0 0 -23-23zm-12 16a5.772 5.772 0 0 1 5.5-6 5.772 5.772 0 0 1 5.5 6 5.772 5.772 0 0 1 -5.5 6 5.772 5.772 0 0 1 -5.5-6zm8.172 19.782a1 1 0 0 1 -1.844-.775l9.906-23.6a1 1 0 0 1 1.844.775zm10.328 2.218a6.023 6.023 0 0 1 0-12 6.023 6.023 0 0 1 0 12z" fill="#c4a2fc"/><g fill="#151a6a"><path d="m35.5 4a3 3 0 0 0 -3-3h-28a3 3 0 0 0 -3 3v44a3 3 0 0 0 3 3h15a4.973 4.973 0 0 0 3.616-1.566.4.4 0 0 0 .034-.022l12.05-11.695a1.2 1.2 0 0 0 .3-.717zm-12.953 38.038 8.114-2.7-6.205 6.024a5 5 0 0 0 -1.909-3.324zm-19.047 5.962v-44a1 1 0 0 1 1-1h28a1 1 0 0 1 1 1v32.279l-14.316 4.772a1 1 0 0 0 .316 1.949 3 3 0 0 1 0 6h-15a1 1 0 0 1 -1-1z"/><path d="m12.5 17.536v-7.179a4.5 4.5 0 0 1 1.95.912 1 1 0 0 0 1.35-1.475 6.623 6.623 0 0 0 -3.3-1.469v-1.325a1 1 0 0 0 -2 0v1.321a5.228 5.228 0 0 0 -4.736 4.323 4.519 4.519 0 0 0 1.465 4.456 14.02 14.02 0 0 0 3.271 1.793v8.644a5.978 5.978 0 0 1 -3.848-1.2 1 1 0 0 0 -1.095 1.673 7.945 7.945 0 0 0 4.943 1.525v1.465a1 1 0 0 0 2 0v-1.593a6.308 6.308 0 0 0 4.915-5.166c.616-3.667-1.487-5.414-4.915-6.705zm-4.037-2.011a2.545 2.545 0 0 1 -.734-2.511 3.162 3.162 0 0 1 2.771-2.653v6.351a10.273 10.273 0 0 1 -2.037-1.187zm6.979 8.385a4.343 4.343 0 0 1 -2.942 3.41v-7.653c2.1.758 3.315 2.033 2.942 4.243z"/><path d="m22.5 11h6a1 1 0 0 0 0-2h-6a1 1 0 0 0 0 2z"/><path d="m22.5 17h6a1 1 0 0 0 0-2h-6a1 1 0 0 0 0 2z"/><path d="m22.5 23h6a1 1 0 0 0 0-2h-6a1 1 0 0 0 0 2z"/></g></svg>