<?xml version="1.0"?>
<svg xmlns="http://www.w3.org/2000/svg" id="Line" width="512" height="512" viewBox="0 0 64 64"><path d="M60,27H52a3,3,0,0,0-3,3V43H47V40a4.985,4.985,0,0,0-9-2.969A4.985,4.985,0,0,0,29,40v3H27V30a3,3,0,0,0-3-3H16a3,3,0,0,0-3,3V60a3,3,0,0,0,3,3h8a3,3,0,0,0,3-3V45h2v3a4.985,4.985,0,0,0,9,2.969A4.985,4.985,0,0,0,47,48V45h2V60a3,3,0,0,0,3,3h8a3,3,0,0,0,3-3V30A3,3,0,0,0,60,27ZM23,56a3,3,0,0,1-3,3H18a1,1,0,0,1,0-2h2a1,1,0,0,0,1-1V48a1,1,0,0,1,2,0Zm36,0a3,3,0,0,1-3,3H54a1,1,0,0,1,0-2h2a1,1,0,0,0,1-1V48a1,1,0,0,1,2,0Z" style="fill:#c4a2fc"/><path d="M48,38H43V2a1,1,0,0,0-2,0v9H34V10a3.983,3.983,0,0,0-7-2.618,3.947,3.947,0,0,0-6,0A3.983,3.983,0,0,0,14,10v1H11V2A1,1,0,0,0,9,2V38H4a3,3,0,0,0-3,3v4a3,3,0,0,0,3,3H48a3,3,0,0,0,3-3V41A3,3,0,0,0,48,38ZM30,8a2,2,0,0,1,2,2v4a2,2,0,0,1-4,0V10A2,2,0,0,1,30,8ZM24,8a2,2,0,0,1,2,2v4a2,2,0,0,1-4,0V10A2,2,0,0,1,24,8Zm-8,2a2,2,0,0,1,4,0v4a2,2,0,0,1-4,0Zm-2,3v1a3.983,3.983,0,0,0,7,2.618,3.947,3.947,0,0,0,6,0A3.983,3.983,0,0,0,34,14V13h7V27H35V26a3.983,3.983,0,0,0-7-2.618A3.983,3.983,0,0,0,21,26v1H11V13ZM29,26a2,2,0,0,1,4,0v4a2,2,0,0,1-4,0Zm-2,4a2,2,0,0,1-4,0V26a2,2,0,0,1,4,0ZM11,29H21v1a3.983,3.983,0,0,0,7,2.618A3.983,3.983,0,0,0,35,30V29h6v9H11ZM49,45a1,1,0,0,1-1,1H4a1,1,0,0,1-1-1V41a1,1,0,0,1,1-1H48a1,1,0,0,1,1,1Z" style="fill:#151a6a"/></svg>
