<svg id="Line" height="512" viewBox="0 0 64 64" width="512" xmlns="http://www.w3.org/2000/svg"><path d="m62 44.5h-48a1 1 0 0 0 -1 1v8a9 9 0 0 0 9 9h32a9 9 0 0 0 9-9v-8a1 1 0 0 0 -1-1zm-20 12h-8a3 3 0 0 1 0-6h8a3 3 0 0 1 0 6z" fill="#c4a2fc"/><path d="m55 15.5a3 3 0 0 0 -3-3h-28a3 3 0 0 0 -3 3v3h34z" fill="#c4a2fc"/><path d="m59 23.5a3 3 0 0 0 -3-3h-36a3 3 0 0 0 -3 3v19h42zm-11 15h-20a1 1 0 0 1 0-2h20a1 1 0 0 1 0 2zm0-8h-20a1 1 0 0 1 0-2h20a1 1 0 0 1 0 2z" fill="#c4a2fc"/><g fill="#151a6a"><path d="m9 9.5a4 4 0 1 0 4 4 4 4 0 0 0 -4-4zm0 6a2 2 0 1 1 2-2 2 2 0 0 1 -2 2z"/><path d="m11 25.5h-4a1 1 0 0 0 0 2h4a1 1 0 0 0 0-2z"/><path d="m11 32.5h-4a1 1 0 0 0 0 2h4a1 1 0 0 0 0-2z"/><path d="m11 39.5h-4a1 1 0 0 0 0 2h4a1 1 0 0 0 0-2z"/><path d="m23 9.5a4 4 0 1 0 4 4 4 4 0 0 0 -4-4zm0 6a2 2 0 1 1 2-2 2 2 0 0 1 -2 2z"/><path d="m25 25.5h-4a1 1 0 0 0 0 2h4a1 1 0 0 0 0-2z"/><path d="m25 32.5h-4a1 1 0 0 0 0 2h4a1 1 0 0 0 0-2z"/><path d="m25 39.5h-4a1 1 0 0 0 0 2h4a1 1 0 0 0 0-2z"/><path d="m50.967 43.312-5.8-39.268a2.947 2.947 0 0 0 -3.352-2.509l-9.609 1.482a2.9 2.9 0 0 0 -1.671.9 2.992 2.992 0 0 0 -2.535-1.417h-10a2.976 2.976 0 0 0 -2 .78 2.976 2.976 0 0 0 -2-.78h-10a3 3 0 0 0 -3 3v40a3 3 0 0 0 3 3h10a2.981 2.981 0 0 0 2-.78 2.981 2.981 0 0 0 2 .78h10a3 3 0 0 0 3-3v-30.555l4.541 30.736a2.948 2.948 0 0 0 3.353 2.508l9.606-1.482a2.984 2.984 0 0 0 2.467-3.395zm-36.967 3.188h-10a1 1 0 0 1 -1-1v-40a1 1 0 0 1 1-1h10a1 1 0 0 1 1 1v40a1 1 0 0 1 -1 1zm15-1a1 1 0 0 1 -1 1h-10a1 1 0 0 1 -1-1v-40a1 1 0 0 1 1-1h10a1 1 0 0 1 1 1zm19.2-.77-9.607 1.483a.949.949 0 0 1 -1.068-.825l-5.8-39.269a.98.98 0 0 1 .794-1.125l9.601-1.483a.949.949 0 0 1 1.068.826l5.8 39.268a.98.98 0 0 1 -.788 1.125z"/><path d="m42.268 24.559-3.843.594a1 1 0 1 0 .3 1.976l3.843-.594a1 1 0 1 0 -.3-1.976z"/><path d="m39.441 32.025a1 1 0 0 0 .151 1.988.986.986 0 0 0 .153-.013l3.842-.593a1 1 0 1 0 -.3-1.976z"/><path d="m39.2 17.015a4 4 0 0 0 1.711-7.153 3.849 3.849 0 0 0 -2.886-.714 4 4 0 0 0 -1.711 7.152 3.85 3.85 0 0 0 2.293.76 3.982 3.982 0 0 0 .593-.045zm-1.7-2.323a2 2 0 0 1 .829-3.567 1.847 1.847 0 0 1 1.4.346 2 2 0 0 1 -.829 3.568 1.864 1.864 0 0 1 -1.4-.347z"/><path d="m40.455 38.9a1 1 0 1 0 .3 1.976l3.845-.596a1 1 0 1 0 -.3-1.976z"/></g></svg>