<svg id="Line" height="512" viewBox="0 0 64 64" width="512" xmlns="http://www.w3.org/2000/svg"><path d="m23.586 42.969a1 1 0 0 0 -.874-.3l-5.728.857a1 1 0 0 0 -.854 1.025 39.14 39.14 0 0 1 -.8 9.193 38.564 38.564 0 0 1 -2.33 7.367l9.136-9.57a1 1 0 0 1 1.45 1.386l-9.14 9.573a34.367 34.367 0 0 1 7-2.43 33.829 33.829 0 0 1 8.743-.833.972.972 0 0 0 1.03-.866l.818-6a1 1 0 0 0 -.269-.829z" fill="#c4a2fc"/><path d="m62.05 28.4-8.184-8.573-3.151-3.3a3.268 3.268 0 0 0 -3.32-.879 20.708 20.708 0 0 0 -9.73 5.922 26.453 26.453 0 0 0 -4.665 8.338c-1.347 3.359-2.621 6.531-5.912 9.59a20.475 20.475 0 0 1 -2.32 1.855c.391.323 8.417 8.774 8.508 8.875a21.348 21.348 0 0 1 1.807-2.489c2.917-3.439 5.938-4.774 9.138-6.183a24.734 24.734 0 0 0 7.984-4.893 21.913 21.913 0 0 0 5.549-9.863l2.845 2.98a1.5 1.5 0 0 1 0 2.042l-13.913 14.578a1 1 0 1 0 1.45 1.385l13.913-14.575a3.523 3.523 0 0 0 .001-4.81zm-13.884-6.683a14.015 14.015 0 0 0 -6.014 3.855 17.675 17.675 0 0 0 -3.075 5.364 1 1 0 1 1 -1.855-.764 19.455 19.455 0 0 1 3.433-5.937 15.96 15.96 0 0 1 6.845-4.411 1 1 0 1 1 .664 1.893z" fill="#c4a2fc"/><g fill="#151a6a"><path d="m47 17.5h-13v-13a3 3 0 0 0 -3-3h-20a3 3 0 0 0 -3 3v13h-4a3 3 0 0 0 -3 3v24a3 3 0 0 0 3 3h43a3 3 0 0 0 3-3v-24a3 3 0 0 0 -3-3zm1 3v21h-29.207a25.132 25.132 0 0 0 9.4-7h12.807a1 1 0 0 0 0-2h-11.3a24.978 24.978 0 0 0 2.212-4.017c.03 0 .056.017.086.017h9a1 1 0 0 0 0-2h-8.318a24.879 24.879 0 0 0 1.3-7h13.02a1 1 0 0 1 1 1zm-38-16a1 1 0 0 1 1-1h20a1 1 0 0 1 1 1v14a23.026 23.026 0 0 1 -22 22.975v-22.975zm-7 16a1 1 0 0 1 1-1h4v22h-5zm45 24a1 1 0 0 1 -1 1h-43a1 1 0 0 1 -1-1v-1h45z"/><path d="m15 11.5h12a1 1 0 0 0 0-2h-12a1 1 0 0 0 0 2z"/><path d="m15 19.5h12a1 1 0 0 0 0-2h-12a1 1 0 0 0 0 2z"/></g></svg>