<svg id="Line" height="512" viewBox="0 0 64 64" width="512" xmlns="http://www.w3.org/2000/svg"><circle cx="44" cy="20" fill="#c4a2fc" r="3"/><path d="m53 31.414v2.586h2.586z" fill="#c4a2fc"/><path d="m59.75 19h-8.82a7 7 0 0 0 -13.86 0h-8.82a3.14 3.14 0 0 0 -3.25 3v38a3.14 3.14 0 0 0 3.25 3h31.5a3.14 3.14 0 0 0 3.25-3v-38a3.14 3.14 0 0 0 -3.25-3zm-22.75 2h1a1 1 0 0 0 1-1 5 5 0 0 1 10 0 1 1 0 0 0 1 1h1v2a1 1 0 0 1 -1 1h-12a1 1 0 0 1 -1-1zm22 35a3.184 3.184 0 0 1 -3.333 3h-23.334a3.184 3.184 0 0 1 -3.333-3v-25a3.184 3.184 0 0 1 3.333-3h19.667a1.007 1.007 0 0 1 .707.293l6 6a1.007 1.007 0 0 1 .293.707z" fill="#c4a2fc"/><rect fill="#c4a2fc" height="16" rx="1" width="3" x="37" y="36"/><rect fill="#c4a2fc" height="12" rx="1" width="3" x="48" y="40"/><path d="m52 36a1 1 0 0 1 -1-1v-5h-18.667c-.722 0-1.333.458-1.333 1v25c0 .542.611 1 1.333 1h23.334c.722 0 1.333-.458 1.333-1v-20zm-10 15a3 3 0 0 1 -3 3h-1a3 3 0 0 1 -3-3v-14a3 3 0 0 1 3-3h1a3 3 0 0 1 3 3zm11 0a3 3 0 0 1 -3 3h-1a3 3 0 0 1 -3-3v-10a3 3 0 0 1 3-3h1a3 3 0 0 1 3 3z" fill="#c4a2fc"/><g fill="#151a6a"><path d="m10 19a9 9 0 1 0 -9-9 9.011 9.011 0 0 0 9 9zm0-16a7 7 0 1 1 -7 7 7.008 7.008 0 0 1 7-7z"/><path d="m10 39a9 9 0 1 0 -9-9 9.011 9.011 0 0 0 9 9zm0-16a7 7 0 1 1 -7 7 7.008 7.008 0 0 1 7-7z"/><path d="m47 4h-22a4 4 0 0 0 -4 4v4a4 4 0 0 0 4 4h22a4 4 0 0 0 4-4v-4a4 4 0 0 0 -4-4zm2 8a2 2 0 0 1 -2 2h-22a2 2 0 0 1 -2-2v-4a2 2 0 0 1 2-2h22a2 2 0 0 1 2 2z"/><path d="m47 24h-22a4 4 0 0 0 -4 4v4a4 4 0 0 0 4 4h22a4 4 0 0 0 4-4v-4a4 4 0 0 0 -4-4zm2 8a2 2 0 0 1 -2 2h-22a2 2 0 0 1 -2-2v-4a2 2 0 0 1 2-2h22a2 2 0 0 1 2 2z"/><path d="m9.293 33.707a1 1 0 0 0 1.6-.26l3-6a1 1 0 1 0 -1.79-.894l-2.377 4.759-2.019-2.019a1 1 0 0 0 -1.414 1.414z"/><path d="m9.293 13.707a1 1 0 0 0 1.6-.26l3-6a1 1 0 0 0 -1.79-.894l-2.377 4.759-2.019-2.019a1 1 0 0 0 -1.414 1.414z"/><path d="m48 41h-44a3 3 0 0 0 0 6h44a3 3 0 0 0 0-6zm0 4h-44a1 1 0 0 1 0-2h44a1 1 0 0 1 0 2z"/></g></svg>