<svg id="Line" height="512" viewBox="0 0 64 64" width="512" xmlns="http://www.w3.org/2000/svg"><g fill="#c4a2fc"><ellipse cx="29.97" cy="18.506" rx="16.97" ry="8.006"/><path d="m29.97 28.514c-7.673 0-13.866-2.056-16.912-5.268l.03 2.45c0 4.43 8.743 6.821 16.97 6.821s16.97-2.391 16.97-6.834l-.028-2.568c-3 3.285-9.254 5.399-17.03 5.399z"/><path d="m29.525 34.513c1.865 3.472 8.4 5.972 16.417 5.972 9.516 0 16.97-3.517 16.97-8.006 0-3.993-5.9-7.21-13.9-7.874l.013 1.054c0 7.01-12.37 8.941-19.5 8.854z"/><path d="m62.968 37.088c-3 3.286-9.251 5.4-17.026 5.4-7.673 0-13.867-2.056-16.913-5.268l.031 2.466c0 4.421 8.743 6.805 16.97 6.805s16.97-2.386 16.97-6.819z"/><path d="m29.97 54.5c8.046 0 14.6-2.517 16.437-6.008-7.02.058-19.344-1.86-19.344-8.8l-.013-1.092c-8.074.642-14.05 3.872-14.05 7.889 0 4.49 7.455 8.011 16.97 8.011z"/><path d="m29.97 56.5c-7.673 0-13.867-2.056-16.913-5.268l.031 2.466c0 4.42 8.743 6.805 16.97 6.805s16.97-2.385 16.97-6.818l-.028-2.585c-3 3.284-9.255 5.4-17.03 5.4z"/></g><path d="m25.1 35.927a17 17 0 1 0 -14.194 0c-5.013.607-9.906 1.95-9.906 4.573v5.444c0 3.596 10.686 4.556 17 4.556s17-.96 17-4.556v-5.444c0-2.623-4.893-3.966-9.9-4.573zm-22.1-15.427a15 15 0 1 1 15 15 15.017 15.017 0 0 1 -15-15zm15 17c9.743 0 15 2.129 15 3s-5.257 3-15 3-15-2.129-15-3 5.257-3 15-3zm0 11c-9.264 0-14.615-1.672-15-2.556v-2.9c3.471 1.885 10.66 2.456 15 2.456s11.534-.571 15-2.461v2.853c-.385.936-5.736 2.608-15 2.608z" fill="#151a6a"/><path d="m19 19.2v-5.414a3.542 3.542 0 0 1 1.216.613 1 1 0 0 0 1.349-1.475 5.557 5.557 0 0 0 -2.565-1.197v-1.227a1 1 0 0 0 -2 0v1.205a4.4 4.4 0 0 0 -3.859 3.626 3.84 3.84 0 0 0 1.253 3.785 11.31 11.31 0 0 0 2.606 1.441v6.643a4.624 4.624 0 0 1 -2.848-.936 1 1 0 0 0 -1.095 1.674 6.6 6.6 0 0 0 3.943 1.262v1.3a1 1 0 0 0 2 0v-1.465a5.292 5.292 0 0 0 3.929-4.269c.495-2.949-1.16-4.535-3.929-5.566zm-3.372-1.658a1.866 1.866 0 0 1 -.522-1.841 2.346 2.346 0 0 1 1.894-1.95v4.612a7.591 7.591 0 0 1 -1.372-.821zm5.328 6.892a3.343 3.343 0 0 1 -1.956 2.511v-5.618a2.656 2.656 0 0 1 1.956 3.107z" fill="#151a6a"/></svg>