<svg id="Line" height="512" viewBox="0 0 64 64" width="512" xmlns="http://www.w3.org/2000/svg"><path d="m50.5 50h-16a12.01 12.01 0 0 0 -12 12 1 1 0 0 0 1 1h38a1 1 0 0 0 1-1 12.011 12.011 0 0 0 -12-12z" fill="#c4a2fc"/><path d="m23.321 45.985c.4.08 9.779 1.75 15.279.35a10.352 10.352 0 0 0 3.87.71 10.855 10.855 0 0 0 3.92-.72 22.671 22.671 0 0 0 5.52.57 60.732 60.732 0 0 0 9.77-.91 1 1 0 0 0 .53-1.689c-2.77-2.76-2.9-5.449-3.24-11.937-.11-2.119-.23-4.518-.47-7.428-1.04-12.376-14.88-11.976-16-11.916-1.13-.06-14.96-.46-16 11.916-.24 2.91-.36 5.309-.47 7.428-.34 6.488-.47 9.177-3.239 11.937a1 1 0 0 0 .53 1.689zm10.179-18.064a18.345 18.345 0 0 0 7.4-3.04 19.079 19.079 0 0 0 3.54-3.139 36.123 36.123 0 0 0 7.06 3.049v11.257a9 9 0 0 1 -10.35 8.907 9.206 9.206 0 0 1 -7.65-9.217z" fill="#c4a2fc"/><g fill="#151a6a"><path d="m48.5 1h-6a1 1 0 0 0 -1 1 3 3 0 0 1 -6 0 1 1 0 0 0 -1-1h-16a1 1 0 0 0 -1 1 3 3 0 0 1 -6 0 1 1 0 0 0 -1-1h-6a3 3 0 0 0 -3 3v32a3 3 0 0 0 3 3h44a3 3 0 0 0 3-3v-32a3 3 0 0 0 -3-3zm1 35a1 1 0 0 1 -1 1h-44a1 1 0 0 1 -1-1v-32a1 1 0 0 1 1-1h5.1a5 5 0 0 0 9.8 0h14.2a5 5 0 0 0 9.8 0h5.1a1 1 0 0 1 1 1z"/><path d="m14.5 21a5 5 0 1 0 -5-5 5.006 5.006 0 0 0 5 5zm0-8a3 3 0 1 1 -3 3 3 3 0 0 1 3-3z"/><path d="m19.167 23h-9.334a3.337 3.337 0 0 0 -3.333 3.333v1.079c0 3.471 5.324 4.588 8 4.588 2.957 0 8-1.221 8-4.591v-1.076a3.337 3.337 0 0 0 -3.333-3.333zm1.333 4.409c0 1.791-4.217 2.591-6 2.591-1.67 0-6-.761-6-2.588v-1.079a1.335 1.335 0 0 1 1.333-1.333h9.334a1.335 1.335 0 0 1 1.333 1.333z"/><path d="m42.5 15h-16a1 1 0 0 0 0 2h16a1 1 0 0 0 0-2z"/><path d="m42.5 20h-16a1 1 0 0 0 0 2h16a1 1 0 0 0 0-2z"/><path d="m42.5 25h-16a1 1 0 0 0 0 2h16a1 1 0 0 0 0-2z"/></g></svg>