<svg id="Line" height="512" viewBox="0 0 64 64" width="512" xmlns="http://www.w3.org/2000/svg"><path d="m24.609 52.637a4.115 4.115 0 0 0 -2.944 1.234 4.229 4.229 0 0 0 0 5.927 4.133 4.133 0 0 0 5.891 0 4.229 4.229 0 0 0 0-5.927 4.022 4.022 0 0 0 -2.947-1.234z" fill="#c4a2fc"/><path d="m48 25.071a8.083 8.083 0 1 0 8 8.082 8.051 8.051 0 0 0 -8-8.082zm5 9.093a1 1 0 0 1 -1-1.011 4.025 4.025 0 0 0 -4-4.041 1.01 1.01 0 0 1 0-2.02 6.038 6.038 0 0 1 6 6.061 1.006 1.006 0 0 1 -1 1.011z" fill="#c4a2fc"/><path d="m58.092 23.027a16.551 16.551 0 0 0 -23.768 0l-20.112 20.555a4.3 4.3 0 0 0 0 5.988 4.1 4.1 0 0 0 5.891 0l6.7-6.851a2.164 2.164 0 0 1 3.047 0 2.266 2.266 0 0 1 0 3.147 4.3 4.3 0 0 0 0 5.988 4.1 4.1 0 0 0 5.892 0l4.469-4.568a2.166 2.166 0 0 1 3.047 0 2.269 2.269 0 0 1 0 3.148l-5.214 5.329a4.3 4.3 0 0 0 0 5.988 4.1 4.1 0 0 0 5.891 0c1.614-1.65 10.8-11.037 14.153-14.465a17.442 17.442 0 0 0 .004-24.259zm-10.092 20.229a10.1 10.1 0 1 1 10-10.1 10.063 10.063 0 0 1 -10 10.1z" fill="#c4a2fc"/><g fill="#151a6a"><path d="m12 25h-8a3 3 0 0 0 -3 3v8a3 3 0 0 0 3 3h8a3 3 0 0 0 3-3v-8a3 3 0 0 0 -3-3zm1 11a1 1 0 0 1 -1 1h-8a1 1 0 0 1 -1-1v-8a1 1 0 0 1 1-1h8a1 1 0 0 1 1 1z"/><path d="m30 13h-8a3 3 0 0 0 -3 3v8a2.981 2.981 0 0 0 .78 2 2.981 2.981 0 0 0 -.78 2v8a3 3 0 0 0 3 3h8a3 3 0 0 0 3-3v-8a2.981 2.981 0 0 0 -.78-2 2.981 2.981 0 0 0 .78-2v-8a3 3 0 0 0 -3-3zm-9 3a1 1 0 0 1 1-1h8a1 1 0 0 1 1 1v8a1 1 0 0 1 -1 1h-8a1 1 0 0 1 -1-1zm10 20a1 1 0 0 1 -1 1h-8a1 1 0 0 1 -1-1v-8a1 1 0 0 1 1-1h8a1 1 0 0 1 1 1z"/><path d="m51 4a3 3 0 0 0 -3-3h-8a3 3 0 0 0 -3 3v8a2.981 2.981 0 0 0 .78 2 2.981 2.981 0 0 0 -.78 2v8a2.981 2.981 0 0 0 .78 2 2.981 2.981 0 0 0 -.78 2v8a3 3 0 0 0 3 3h8a3 3 0 0 0 3-3v-8a2.981 2.981 0 0 0 -.78-2 2.981 2.981 0 0 0 .78-2v-8a2.981 2.981 0 0 0 -.78-2 2.981 2.981 0 0 0 .78-2zm-12 0a1 1 0 0 1 1-1h8a1 1 0 0 1 1 1v8a1 1 0 0 1 -1 1h-8a1 1 0 0 1 -1-1zm10 12v8a1 1 0 0 1 -1 1h-8a1 1 0 0 1 -1-1v-8a1 1 0 0 1 1-1h8a1 1 0 0 1 1 1zm0 20a1 1 0 0 1 -1 1h-8a1 1 0 0 1 -1-1v-8a1 1 0 0 1 1-1h8a1 1 0 0 1 1 1z"/><path d="m10 29h-4a1 1 0 0 0 0 2h1.586l-2.293 2.293a1 1 0 0 0 1.414 1.414l2.293-2.293v1.586a1 1 0 0 0 2 0v-4a1 1 0 0 0 -1-1z"/><path d="m23.293 22.707a1 1 0 0 0 1.414 0l2.293-2.293v1.586a1 1 0 0 0 2 0v-4a1 1 0 0 0 -1-1h-4a1 1 0 0 0 0 2h1.586l-2.293 2.293a1 1 0 0 0 0 1.414z"/><path d="m41.293 10.707a1 1 0 0 0 1.414 0l2.293-2.293v1.586a1 1 0 0 0 2 0v-4a1 1 0 0 0 -1-1h-4a1 1 0 0 0 0 2h1.586l-2.293 2.293a1 1 0 0 0 0 1.414z"/></g></svg>