<svg id="Line" height="512" viewBox="0 0 64 64" width="512" xmlns="http://www.w3.org/2000/svg"><path d="m60 21h-9v-5a3.009 3.009 0 0 0 -3-3h-32a3.009 3.009 0 0 0 -3 3v38a1.014 1.014 0 0 0 .29.71l8 8a1.014 1.014 0 0 0 .71.29h26a3.009 3.009 0 0 0 3-3v-31h10v1a1 1 0 0 1 -1 1h-5a1 1 0 0 0 0 2h5a3 3 0 0 0 3-3v-6a3.009 3.009 0 0 0 -3-3zm-39 38.59-4.59-4.59h4.59zm20-12.59h-18a1 1 0 0 1 0-2h18a1 1 0 0 1 0 2zm0-8h-18a1 1 0 0 1 0-2h18a1 1 0 0 1 0 2zm14-12h-26.76l-4-2 4-2h26.76z" fill="#c4a2fc"/><g fill="#151a6a"><path d="m40 1h-34a5.006 5.006 0 0 0 -5 5v40a5.006 5.006 0 0 0 5 5h26a3 3 0 0 0 3-3v-5h5a3 3 0 0 0 3-3v-36a3 3 0 0 0 -3-3zm-34 2h3v38h-3a4.948 4.948 0 0 0 -3 1.026v-36.026a3 3 0 0 1 3-3zm27 45a1 1 0 0 1 -1 1h-26a3 3 0 0 1 0-6h27zm8-8a1 1 0 0 1 -1 1h-29v-38h29a1 1 0 0 1 1 1z"/><path d="m17 22a9 9 0 1 0 9-9 9.011 9.011 0 0 0 -9 9zm16 0a7 7 0 1 1 -7-7 7.008 7.008 0 0 1 7 7z"/><path d="m21 22a1 1 0 0 0 2 0 3 3 0 0 1 3-3 1 1 0 0 0 0-2 5.006 5.006 0 0 0 -5 5z"/></g></svg>