<svg id="Line" height="512" viewBox="0 0 64 64" width="512" xmlns="http://www.w3.org/2000/svg"><g fill="#c4a2fc"><path d="m38.466 41.183a2.072 2.072 0 0 0 .586 2.043 8.081 8.081 0 0 0 1.448.874v-5.053a2.58 2.58 0 0 0 -2.034 2.136z"/><path d="m42.5 47.073v6.32a3.632 3.632 0 0 0 2.381-2.823c.302-1.802-.655-2.876-2.381-3.497z"/><path d="m61.989 53.668c-6.185-22.23-13.8-24.545-14.118-24.633a1.235 1.235 0 0 0 -.371-.035v-2.8c2.444-1.665 7.46-5.591 5.6-8.71-1.014-1.7-2.256-3.529-4.161-3.713a4.142 4.142 0 0 0 -2.77.882 2.992 2.992 0 0 0 -2.669-1.659h-4a2.993 2.993 0 0 0 -2.667 1.655 4.114 4.114 0 0 0 -2.771-.881c-1.905.184-3.147 2.013-4.161 3.713-1.861 3.119 3.155 7.045 5.6 8.71v2.803a1.29 1.29 0 0 0 -.371.035c-.321.088-7.933 2.4-14.118 24.633a6.375 6.375 0 0 0 .355 5.672c1.558 2.429 5.044 3.66 10.361 3.66h19.544c5.317 0 8.8-1.231 10.362-3.66a6.375 6.375 0 0 0 .355-5.672zm-24.489-26.668h8v2h-8zm9.353 23.9a5.593 5.593 0 0 1 -4.353 4.58v1.52a1 1 0 0 1 -2 0v-1.407a6.992 6.992 0 0 1 -4.12-1.338 1 1 0 1 1 1.095-1.674 4.97 4.97 0 0 0 3.025 1.019v-7.3a11.834 11.834 0 0 1 -2.683-1.5 4.045 4.045 0 0 1 -1.317-3.987 4.625 4.625 0 0 1 4-3.818v-.995a1 1 0 0 1 2 0v.967a5.874 5.874 0 0 1 2.914 1.3 1 1 0 0 1 -1.35 1.475 3.8 3.8 0 0 0 -1.564-.74v5.937c3.034 1.148 4.9 2.705 4.353 5.961z"/></g><path d="m46 40h-15.76a5.5 5.5 0 0 0 -4.24-9h-14.684a3 3 0 0 0 -2.816-2h-4a3 3 0 0 0 -3 3v16a3 3 0 0 0 3 3h4a3 3 0 0 0 3-3v-.382l6.131 3.066a3.014 3.014 0 0 0 1.341.316h27.028a5.5 5.5 0 0 0 0-11zm-36.5 8a1 1 0 0 1 -1 1h-4a1 1 0 0 1 -1-1v-16a1 1 0 0 1 1-1h4a1 1 0 0 1 1 1zm36.5 1h-27.028a1 1 0 0 1 -.447-.1l-7.025-3.518v-12.382h14.5a3.5 3.5 0 0 1 .009 7h-2.509a1 1 0 1 0 0 2h22.5a3.5 3.5 0 0 1 0 7z" fill="#151a6a"/><path d="m26.5 27a13 13 0 1 0 -13-13 13.015 13.015 0 0 0 13 13zm0-24a11 11 0 1 1 -11 11 11.013 11.013 0 0 1 11-11z" fill="#151a6a"/><path d="m19.5 14a7.008 7.008 0 0 1 7-7 1 1 0 0 0 0-2 9.01 9.01 0 0 0 -9 9 1 1 0 0 0 2 0z" fill="#151a6a"/></svg>