<svg id="Line" height="512" viewBox="0 0 64 64" width="512" xmlns="http://www.w3.org/2000/svg"><g fill="#c4a2fc"><rect height="20" rx="1" width="38" x="19" y="23"/><path d="m60 17h-44a3 3 0 0 0 -3 3v26a3 3 0 0 0 3 3h44a3 3 0 0 0 3-3v-26a3 3 0 0 0 -3-3zm-1 25a3 3 0 0 1 -3 3h-36a3 3 0 0 1 -3-3v-18a3 3 0 0 1 3-3h36a3 3 0 0 1 3 3z"/><path d="m44.508 58.456-4.081-6.156a2.912 2.912 0 0 0 -4.854 0l-4.082 6.152a2.926 2.926 0 0 0 2.427 4.548h8.164a2.925 2.925 0 0 0 2.426-4.544z"/></g><path d="m42.677 17h2.323a3 3 0 0 0 3-3v-2a3 3 0 0 0 -3-3h-8.6a4.777 4.777 0 0 1 -4.27-2.858 9 9 0 0 0 -16.266 0 4.777 4.777 0 0 1 -4.264 2.858h-7.6a3 3 0 0 0 -3 3v2a3 3 0 0 0 3 3h1.323l1.677 4.193v17.807h-3a3 3 0 0 0 -3 3v2a3 3 0 0 0 3 3h41a3 3 0 0 0 3-3v-2a3 3 0 0 0 -3-3h-4v-17.807zm-3.354 3h-6.646l-1.2-3h9.046zm-22.323 19v-17.807l1.677-4.193h10.646l1.677 4.193v17.807zm-14-25v-2a1 1 0 0 1 1-1h7.6a6.76 6.76 0 0 0 6.077-4 7 7 0 0 1 12.649 0 6.759 6.759 0 0 0 6.074 4h8.6a1 1 0 0 1 1 1v2a1 1 0 0 1 -1 1h-41a1 1 0 0 1 -1-1zm13.523 3-1.2 3h-6.646l-1.2-3zm-7.523 5h6v17h-6zm37 20v2a1 1 0 0 1 -1 1h-41a1 1 0 0 1 -1-1v-2a1 1 0 0 1 1-1h41a1 1 0 0 1 1 1zm-13-3v-17h6v17z" fill="#151a6a"/><path d="m24 13a4 4 0 1 0 -4-4 4 4 0 0 0 4 4zm0-6a2 2 0 1 1 -2 2 2 2 0 0 1 2-2z" fill="#151a6a"/></svg>