<svg id="Line" height="512" viewBox="0 0 64 64" width="512" xmlns="http://www.w3.org/2000/svg"><path d="m62.5 40a1 1 0 0 0 -1-1 6.973 6.973 0 0 0 -5 2.111v-8.191a7 7 0 1 0 -2 0v6.191a6.973 6.973 0 0 0 -5-2.111 1 1 0 0 0 -1 1 7 7 0 0 0 6 6.92v5.368a7.084 7.084 0 0 0 -2-.288 6.972 6.972 0 0 0 -2.053.309 7.007 7.007 0 0 0 -5.947-3.309 6.859 6.859 0 0 0 -1.615.188 7.863 7.863 0 0 0 -4.385-2.932v-3.256h1a9.01 9.01 0 0 0 9-9 1 1 0 0 0 -1-1h-2a8.983 8.983 0 0 0 -7 3.356v-7.436a7 7 0 1 0 -2 0v5.436a8.983 8.983 0 0 0 -7-3.356h-2a1 1 0 0 0 -1 1 9.01 9.01 0 0 0 9 9h1v5a7.944 7.944 0 0 0 -7.575 5.431 6.962 6.962 0 0 0 -2.425-.431 7.043 7.043 0 0 0 -6.708 5.006c-.092-.006-.192-.006-.292-.006a7.008 7.008 0 0 0 -7 7 6.475 6.475 0 0 0 .107 1.183 1 1 0 0 0 .983.817h47.91a1 1 0 0 0 1-1 7.025 7.025 0 0 0 -3.048-5.774 6.936 6.936 0 0 0 -2.952-4.973v-4.333a7 7 0 0 0 6-6.92zm-25-21a1 1 0 0 0 -1 1 1 1 0 0 1 -2 0 3 3 0 0 1 3-3 1 1 0 0 1 0 2zm18 6a1 1 0 0 0 -1 1 1 1 0 0 1 -2 0 3 3 0 0 1 3-3 1 1 0 0 1 0 2z" fill="#c4a2fc"/><g fill="#151a6a"><path d="m26.5 8a18 18 0 1 0 18 18 18.021 18.021 0 0 0 -18-18zm0 34a16 16 0 1 1 16-16 16.019 16.019 0 0 1 -16 16z"/><path d="m27.5 24.7v-5.413a3.518 3.518 0 0 1 1.216.613 1 1 0 0 0 1.35-1.476 5.56 5.56 0 0 0 -2.566-1.2v-1.224a1 1 0 0 0 -2 0v1.2a4.4 4.4 0 0 0 -3.86 3.626 3.84 3.84 0 0 0 1.254 3.785 11.31 11.31 0 0 0 2.606 1.446v6.643a4.612 4.612 0 0 1 -2.848-.938 1 1 0 0 0 -1.1 1.674 6.6 6.6 0 0 0 3.948 1.264v1.3a1 1 0 0 0 2 0v-1.465a5.294 5.294 0 0 0 3.929-4.27c.496-2.955-1.169-4.537-3.929-5.565zm-3.372-1.658a1.868 1.868 0 0 1 -.523-1.841 2.347 2.347 0 0 1 1.895-1.95v4.611a7.688 7.688 0 0 1 -1.372-.82zm5.328 6.892a3.343 3.343 0 0 1 -1.956 2.511v-5.618a2.656 2.656 0 0 1 1.956 3.107z"/><path d="m48.725 14.541a1 1 0 1 0 -1.777.918 22.736 22.736 0 0 1 2.552 10.541 23.008 23.008 0 1 1 -7.513-17h-2.487a1 1 0 0 0 0 2h5a1 1 0 0 0 1-1v-5a1 1 0 0 0 -2 0v2.68a24.889 24.889 0 1 0 5.225 6.861z"/></g></svg>