<svg id="Line" height="512" viewBox="0 0 64 64" width="512" xmlns="http://www.w3.org/2000/svg"><path d="m62.581 58.6-8.087-13.468a2.911 2.911 0 0 0 -4.991 0l-8.086 13.468a2.907 2.907 0 0 0 2.495 4.4h16.173a2.908 2.908 0 0 0 2.496-4.4z" fill="#c4a2fc"/><path d="m43.911 47.64h1.752l2.126-3.54a4.91 4.91 0 0 1 8.419 0l2.125 3.537h1.752a2.907 2.907 0 0 0 2.495-4.4l-8.087-13.466a2.911 2.911 0 0 0 -4.99 0l-8.086 13.464a2.907 2.907 0 0 0 2.494 4.405z" fill="#c4a2fc"/><path d="m62.58 27.875-8.086-13.464a2.911 2.911 0 0 0 -4.99 0l-8.086 13.464a2.907 2.907 0 0 0 2.495 4.405h1.752l2.125-3.538a4.909 4.909 0 0 1 8.418 0l2.125 3.538h1.752a2.907 2.907 0 0 0 2.495-4.405z" fill="#c4a2fc"/><path d="m22.505 30.868a2.91 2.91 0 0 0 4.99 0l8.085-13.463a2.907 2.907 0 0 0 -2.494-4.405h-16.173a2.907 2.907 0 0 0 -2.494 4.405z" fill="#c4a2fc"/><path d="m22.505 46.228a2.91 2.91 0 0 0 4.99 0l8.086-13.463a2.908 2.908 0 0 0 -2.5-4.405h-1.747l-2.125 3.54a4.91 4.91 0 0 1 -8.419 0l-2.124-3.54h-1.752a2.907 2.907 0 0 0 -2.5 4.4z" fill="#c4a2fc"/><path d="m33.086 43.72h-1.753l-2.124 3.538a4.911 4.911 0 0 1 -8.419 0l-2.124-3.538h-1.753a2.908 2.908 0 0 0 -2.5 4.405l8.087 13.464a2.91 2.91 0 0 0 4.989 0l8.087-13.464a2.907 2.907 0 0 0 -2.49-4.405z" fill="#c4a2fc"/><g fill="#151a6a"><path d="m9.883 32.342c-.958.114-1.924.27-2.883.463v-2.526a1 1 0 1 0 -2 0v3.779a1 1 0 0 0 1.229.983 34.759 34.759 0 0 1 3.888-.694 1.009 1.009 0 0 0 -.234-2.005z"/><path d="m46 31.288a1 1 0 0 0 -1 1.01v3.657a27.261 27.261 0 0 1 -3.152.687 1.009 1.009 0 0 0 .3 1.995 29.467 29.467 0 0 0 4.14-.958 1.01 1.01 0 0 0 .712-.966v-4.413a1 1 0 0 0 -1-1.012z"/><path d="m45.771 15.016a34.612 34.612 0 0 1 -3.888.694 1.009 1.009 0 0 0 .234 2c.958-.114 1.923-.269 2.883-.463v2.931a1 1 0 1 0 2 0v-4.178a1 1 0 0 0 -1.229-.984z"/><path d="m6 18.163a1 1 0 0 0 1-1.009v-3.054a27.466 27.466 0 0 1 3.152-.686 1.009 1.009 0 0 0 -.3-2 29.467 29.467 0 0 0 -4.14.958 1.009 1.009 0 0 0 -.712.973v3.809a1 1 0 0 0 1 1.009z"/><path d="m46.678 4.537a30.1 30.1 0 0 1 -8.678 1.309c-4.742 0-8.118-1.152-11.693-2.372a35.442 35.442 0 0 0 -12.307-2.474 32.423 32.423 0 0 0 -10.668 1.855 3.465 3.465 0 0 0 -2.332 3.262v30.043a3.394 3.394 0 0 0 4.322 3.3 30.077 30.077 0 0 1 8.678-1.306c4.727 0 8.1 1.15 11.667 2.368a35.5 35.5 0 0 0 12.333 2.478 32.423 32.423 0 0 0 10.668-1.855 3.465 3.465 0 0 0 2.332-3.263v-30.043a3.394 3.394 0 0 0 -4.322-3.302zm-42.694.227a30.436 30.436 0 0 1 10.016-1.745c4.727 0 8.1 1.15 11.667 2.368a35.474 35.474 0 0 0 12.333 2.478 32.037 32.037 0 0 0 9.25-1.394 1.39 1.39 0 0 1 1.75 1.368v2.923a3.242 3.242 0 0 0 -2.322-.168 30.068 30.068 0 0 1 -8.678 1.306c-4.742 0-8.118-1.152-11.693-2.372a35.442 35.442 0 0 0 -12.307-2.47 31.818 31.818 0 0 0 -11 2v-2.941a1.447 1.447 0 0 1 .984-1.353zm45.016 33.118a1.447 1.447 0 0 1 -.984 1.354 30.436 30.436 0 0 1 -10.016 1.745c-4.742 0-8.118-1.152-11.693-2.372a35.417 35.417 0 0 0 -12.307-2.475 32.054 32.054 0 0 0 -9.25 1.4 1.39 1.39 0 0 1 -1.75-1.374v-23.985a1.446 1.446 0 0 1 .984-1.353 30.436 30.436 0 0 1 10.016-1.745c4.727 0 8.1 1.15 11.667 2.368a35.5 35.5 0 0 0 12.333 2.478 32.037 32.037 0 0 0 9.25-1.394 1.39 1.39 0 0 1 1.75 1.371z"/><path d="m26 35.327a10.1 10.1 0 1 0 -10-10.1 10.06 10.06 0 0 0 10 10.1zm0-18.173a8.077 8.077 0 1 1 -8 8.077 8.048 8.048 0 0 1 8-8.077z"/><path d="m26 21.192a4.024 4.024 0 0 1 4 4.039 1 1 0 1 0 2 0 6.035 6.035 0 0 0 -6-6.058 1.01 1.01 0 0 0 0 2.019z"/></g></svg>