<svg id="Line" height="512" viewBox="0 0 64 64" width="512" xmlns="http://www.w3.org/2000/svg"><g fill="#c4a2fc"><path d="m55 59.5v-25a3.5 3.5 0 0 0 -3.5-3.5h-35a3.5 3.5 0 0 0 -3.5 3.5v25a3.5 3.5 0 0 0 3.5 3.5h35a3.5 3.5 0 0 0 3.5-3.5zm-3.5-26.5a1.5 1.5 0 0 1 1.5 1.5v4.42a6.979 6.979 0 0 1 -5.92-5.92zm-36.5 1.5a1.5 1.5 0 0 1 1.5-1.5h4.42a6.979 6.979 0 0 1 -5.92 5.92zm10 12.5a9 9 0 1 1 9 9 9.014 9.014 0 0 1 -9-9zm-8.5 14a1.5 1.5 0 0 1 -1.5-1.5v-4.42a6.979 6.979 0 0 1 5.92 5.92zm30.58 0a6.979 6.979 0 0 1 5.92-5.92v4.42a1.5 1.5 0 0 1 -1.5 1.5z"/><path d="m41 47a7 7 0 1 0 -7 7 7.008 7.008 0 0 0 7-7zm-12 0a1 1 0 0 1 2 0 3.009 3.009 0 0 0 3 3 1 1 0 0 1 0 2 5 5 0 0 1 -5-5z"/><path d="m57 49.117a6.941 6.941 0 0 1 4-2.037v4.42a1.5 1.5 0 0 1 -1.5 1.5h-2.5v2h2.5a3.5 3.5 0 0 0 3.5-3.5v-25a3.5 3.5 0 0 0 -3.5-3.5h-35a3.5 3.5 0 0 0 -3.5 3.5v2.5h2v-2.5a1.5 1.5 0 0 1 1.5-1.5h4.42a6.941 6.941 0 0 1 -2.037 4h24.617a5.506 5.506 0 0 1 5.5 5.5zm-1.92-24.117h4.42a1.5 1.5 0 0 1 1.5 1.5v4.42a6.979 6.979 0 0 1 -5.92-5.92z"/></g><path d="m48 9h-5v-5a3 3 0 0 0 -3-3h-34a5.006 5.006 0 0 0 -5 5v32a5.006 5.006 0 0 0 5 5h42a3 3 0 0 0 3-3v-28a3 3 0 0 0 -3-3zm-42-6h34a1 1 0 0 1 1 1v5h-35a3 3 0 0 1 0-6zm42 38h-42a3 3 0 0 1 -3-3v-28.026a4.948 4.948 0 0 0 3 1.026h42a1 1 0 0 1 1 1v7h-18a6 6 0 0 0 0 12h18v9a1 1 0 0 1 -1 1zm1-12h-18a4 4 0 0 1 0-8h18z" fill="#151a6a"/><circle cx="44" cy="25" fill="#151a6a" r="2"/></svg>